<?xml version="1.0" encoding="iso-8859-1"?>
<!-- Generator: Adobe Illustrator 19.0.0, SVG Export Plug-In . SVG Version: 6.00 Build 0)  -->
<svg version="1.1" id="Layer_1" xmlns="http://www.w3.org/2000/svg" xmlns:xlink="http://www.w3.org/1999/xlink" x="0px" y="0px"
	 viewBox="0 0 512 512" style="enable-background:new 0 0 512 512;" xml:space="preserve">
<g>
	<path style="fill:#FCCC9A;" d="M349.736,164.63l-2.549-0.455v49.304l2.549-0.455c11.746-2.098,20.27-12.273,20.27-24.195
		C370.006,176.905,361.481,166.727,349.736,164.63z"/>
	<rect x="83.067" y="480.199" style="fill:#FCCC9A;" width="50.932" height="17.712"/>
</g>
<rect x="83.067" y="480.199" style="fill:#EDBA89;" width="18.334" height="17.712"/>
<rect x="376.107" y="480.199" style="fill:#FCCC9A;" width="52.82" height="17.712"/>
<path style="fill:#EDBA89;" d="M142.144,188.829c0,11.921,8.524,22.097,20.27,24.195l2.549,0.455v-49.304l-2.549,0.455
	C150.668,166.727,142.144,176.905,142.144,188.829z"/>
<path style="fill:#FCCC9A;" d="M176.886,215.876c0,39.071,31.787,70.857,70.86,70.857h16.665c39.069,0,70.854-31.786,70.854-70.857
	v-66.608H176.886V215.876z M265.584,221.136h-14.129c-3.286,0-5.961-2.675-5.961-5.961v-26.952c0-3.286,2.675-5.961,5.961-5.961
	s5.961,2.675,5.961,5.961v20.991h8.168c3.286,0,5.961,2.675,5.961,5.961C271.546,218.463,268.871,221.136,265.584,221.136z"/>
<path style="fill:#EDBA89;" d="M192.627,215.876v-66.608h-15.742v66.608c0,39.071,31.787,70.857,70.86,70.857h15.742
	C224.415,286.733,192.627,254.947,192.627,215.876z"/>
<path style="fill:#FCCC9A;" d="M264.411,298.655h-16.665c-7.091,0-14.156-0.91-21-2.706l-2.718-0.713v26.553l1.179,0.604
	c7.149,3.666,20.412,12.042,28.911,26.962l1.884,3.307l1.884-3.307c8.536-14.99,21.87-23.373,29.057-27.037l1.184-0.604v-26.476
	l-2.718,0.712C278.562,297.745,271.499,298.655,264.411,298.655z"/>
<path style="fill:#EDBA89;" d="M238.5,315.626l-1.104-0.564v-17.059c-3.591-0.452-7.15-1.136-10.65-2.055l-2.718-0.713v26.553
	l1.179,0.604c7.149,3.666,20.412,12.042,28.911,26.962l1.884,3.307l1.884-3.307c2.072-3.638,4.43-6.88,6.91-9.768
	C256.825,326.43,244.983,318.95,238.5,315.626z"/>
<g>
	<path style="fill:#75C04D;" d="M355.344,151.436c0.24,0.064,0.476,0.134,0.714,0.204v-0.204H355.344z"/>
	<path style="fill:#75C04D;" d="M358.226,154.521l-2.939-0.849c-0.166-0.049-0.333-0.098-0.499-0.142l-16.058-4.263h19.496V154.521z
		"/>
	<path style="fill:#75C04D;" d="M156.476,151.531c0.111-0.03,0.219-0.065,0.331-0.094h-0.331V151.531z"/>
	<polygon style="fill:#75C04D;" points="154.308,154.384 154.308,149.269 173.344,149.269 	"/>
</g>
<path style="fill:#694B4B;" d="M357.256,90.512c-10.52-44.997-50.218-76.422-96.538-76.422h-8.767
	c-46.329,0-86.02,31.426-96.522,76.423l-0.621,2.66h203.07L357.256,90.512z"/>
<path style="fill:#563B3B;" d="M264.464,14.169c-1.243-0.047-2.491-0.079-3.746-0.079h-8.767c-46.329,0-86.02,31.426-96.522,76.423
	l-0.621,2.66h16.258l0.621-2.66C181.906,46.733,219.755,15.812,264.464,14.169z"/>
<path style="fill:#6699CC;" d="M379.684,357.362c-0.096-0.025-0.228-0.057-0.32-0.085l-85.094-25.288l-0.751,0.358
	c-6.614,3.146-28.416,15.476-31.305,41.987l-0.024,0.222l0.022,0.223c0.018,0.192,0.029,0.384,0.029,0.581v25.535
	c0,3.287-2.675,5.961-5.961,5.961c-3.287,0-5.961-2.674-5.961-5.961v-18.537l-0.094-0.309c-0.173-0.567-0.261-1.155-0.261-1.746
	c0-0.753,0.029-1.487,0.06-2.221l0.022-0.545l-0.005-0.096c-1.451-28.588-24.523-41.742-31.559-45.092l-0.752-0.358l-85.09,25.286
	c-0.111,0.033-0.223,0.064-0.36,0.095c-2.009,0.496-49.206,12.947-49.206,81.012v29.891h50.932v-32.869
	c0-3.287,2.674-5.961,5.961-5.961s5.961,2.674,5.961,5.961v67.923h218.259v-67.923c0-3.287,2.674-5.961,5.961-5.961
	c3.286,0,5.961,2.674,5.961,5.961v32.869h52.82v-29.893C428.929,370.315,381.69,357.857,379.684,357.362z M304.217,351.54
	c0.751-2.5,3.097-4.245,5.705-4.245c0.579,0,1.159,0.086,1.721,0.255l73.439,22.103c1.525,0.46,2.779,1.484,3.533,2.886
	c0.753,1.402,0.917,3.014,0.457,4.539c-0.752,2.5-3.098,4.245-5.705,4.245c-0.579,0-1.158-0.086-1.721-0.255l-73.439-22.103
	c-1.525-0.46-2.779-1.484-3.533-2.886C303.921,354.676,303.758,353.065,304.217,351.54z M186.024,438.478
	c1.08-0.889,2.389-1.36,3.786-1.36c1.791,0,3.469,0.791,4.605,2.171l5.429,6.59c2.091,2.537,1.727,6.303-0.811,8.391
	c-1.064,0.878-2.409,1.36-3.786,1.36c-1.789,0-3.468-0.791-4.605-2.171l-5.429-6.59c-1.013-1.229-1.486-2.779-1.332-4.364
	C184.034,440.921,184.796,439.489,186.024,438.478z M202.35,347.294c2.608,0,4.953,1.746,5.706,4.247
	c0.46,1.524,0.296,3.137-0.457,4.539c-0.753,1.403-2.008,2.427-3.533,2.886l-73.439,22.103c-0.563,0.169-1.142,0.255-1.721,0.255
	c-2.607,0-4.952-1.745-5.705-4.247c-0.46-1.524-0.296-3.137,0.457-4.539c0.753-1.403,2.008-2.427,3.533-2.886l73.44-22.103
	C201.191,347.38,201.771,347.294,202.35,347.294z M201.055,422.849c1.064-0.877,2.409-1.36,3.786-1.36
	c1.789,0,3.468,0.791,4.605,2.171l18.304,22.219c1.013,1.229,1.486,2.779,1.333,4.364c-0.154,1.585-0.915,3.015-2.144,4.028
	c-1.064,0.878-2.409,1.36-3.786,1.36c-1.789,0-3.468-0.791-4.605-2.171l-18.304-22.219c-1.013-1.229-1.486-2.779-1.332-4.364
	C199.067,425.292,199.827,423.86,201.055,422.849z"/>
<g style="opacity:0.19;">
	<path style="fill:#202121;" d="M99.974,467.017v-32.775c0-41.89,16.304-64.566,30.999-76.498c-7.958,2.473-47.9,18.021-47.9,80.639
		v29.891h50.932v-1.258L99.974,467.017L99.974,467.017z"/>
</g>
<g>
	<path style="fill:#202121;" d="M265.584,223.304h-14.129c-4.49,0-8.129-3.64-8.129-8.129v-26.952c0-4.49,3.638-8.129,8.129-8.129
		c4.49,0,8.129,3.638,8.129,8.129v18.823h6c4.49,0,8.129,3.638,8.129,8.129C273.713,219.666,270.074,223.304,265.584,223.304z"/>
	<path style="fill:#202121;" d="M148.355,103.497c-0.456,0-0.919-0.038-1.383-0.117c-4.424-0.759-7.396-4.961-6.639-9.386
		c4.46-26.015,18.044-49.814,38.247-67.012C199.02,9.582,225.077,0,251.951,0h8.767c54.898,0,101.779,39.158,111.471,93.109
		c0.793,4.419-2.144,8.645-6.564,9.438c-4.424,0.793-8.645-2.145-9.438-6.564c-8.298-46.196-48.448-79.726-95.469-79.726h-8.767
		c-47.396,0-87.598,33.847-95.592,80.483C155.679,100.7,152.242,103.497,148.355,103.497z"/>
	<path style="fill:#202121;" d="M413.493,361.196c-13.909-12.854-28.011-16.887-30.274-17.473l-81.004-24.072v-27.736
		c24.638-12.301,42.487-36.218,46.339-64.536c19.865-1.608,35.542-18.277,35.542-38.549c0-10.884-4.523-20.725-11.779-27.762V150.66
		c2.762-1.3,4.677-4.098,4.677-7.352V99.134c0-3.424-2.118-6.346-5.114-7.545C361.585,38.429,315.097,0,260.718,0h-8.767
		c-26.875,0-52.932,9.582-73.37,26.981c-19.43,16.541-32.712,39.192-37.67,64.041c-4.328,0.182-7.783,3.738-7.783,8.112v44.173
		c0,4.137,3.092,7.544,7.089,8.055v9.338c-7.481,7.059-12.164,17.054-12.164,28.128c0,20.272,15.676,36.941,35.542,38.549
		c3.853,28.319,21.703,52.236,46.342,64.537v27.69l-81.156,24.118c-2.264,0.585-16.366,4.618-30.274,17.473
		c-13.47,12.447-29.525,35.943-29.525,77.188v65.485c0,4.49,3.638,8.131,8.129,8.131h91.136c4.49,0,8.129-3.638,8.129-8.129
		s-3.638-8.129-8.129-8.129h-20.153v-60.336c0-4.49-3.638-8.129-8.129-8.129c-4.49,0-8.129,3.638-8.129,8.129v30.701H85.24v-27.724
		c0-66.398,45.658-78.438,47.559-78.908c0.153-0.036,0.303-0.076,0.454-0.12l84.294-25.05c7.313,3.482,28.946,16.044,30.327,43.246
		c-0.035,0.912-0.078,1.815-0.078,2.752c0,0.828,0.126,1.627,0.356,2.379v18.214c0,4.49,3.638,8.129,8.129,8.129
		c4.49,0,8.129-3.638,8.129-8.129V375.36c0-0.268-0.015-0.531-0.04-0.792c2.741-25.158,23.073-36.929,30.081-40.265l84.296,25.051
		c0.121,0.036,0.288,0.079,0.411,0.111c1.944,0.48,47.603,12.522,47.603,78.918v27.724h-48.485v-30.701
		c0-4.49-3.638-8.129-8.129-8.129s-8.129,3.638-8.129,8.129v60.336H218.066h-9.34h-9.769c-4.49,0-8.129,3.638-8.129,8.129
		s3.638,8.129,8.129,8.129h9.769h9.34H434.89c4.49,0,8.129-3.656,8.129-8.145v-65.47
		C443.019,397.138,426.963,373.642,413.493,361.196z M131.837,482.365v13.377H85.24v-13.377H131.837z M149.386,135.179v-27.916
		h211.35v27.916C360.737,135.179,149.386,135.179,149.386,135.179z M349.355,210.89v-44.127
		c10.49,1.874,18.484,11.043,18.484,22.065C367.838,199.849,359.843,209.017,349.355,210.89z M355.344,151.436h0.714v0.204
		C355.821,151.571,355.584,151.499,355.344,151.436z M251.951,16.258h8.767c45.312,0,84.231,31.142,94.427,74.748H157.54
		C167.726,47.361,206.526,16.258,251.951,16.258z M156.476,151.436h0.329c-0.111,0.029-0.22,0.064-0.329,0.093V151.436z
		 M144.312,188.829c0-11.022,7.994-20.192,18.484-22.065v44.127C152.306,209.017,144.312,199.849,144.312,188.829z M179.053,215.876
		v-64.44h154.044v64.44c0,37.875-30.813,68.689-68.687,68.689h-16.665C209.868,284.565,179.053,253.752,179.053,215.876z
		 M256,348.28c-8.754-15.369-22.348-23.994-29.805-27.818v-22.418c6.886,1.807,14.105,2.778,21.55,2.778h16.665
		c7.444,0,14.663-0.97,21.548-2.777v22.34C278.534,324.168,264.814,332.807,256,348.28z M378.275,495.742v-13.377h48.485v13.377
		H378.275z"/>
	<path style="fill:#202121;" d="M199.678,421.176c-3.465,2.855-3.96,7.977-1.107,11.443l18.304,22.219
		c1.607,1.952,3.934,2.96,6.279,2.96c1.82,0,3.65-0.608,5.165-1.854c3.465-2.855,3.96-7.977,1.106-11.443l-18.304-22.219
		C208.265,418.816,203.142,418.323,199.678,421.176z"/>
	<path style="fill:#202121;" d="M200.412,455.943c3.465-2.855,3.96-7.977,1.107-11.443l-5.429-6.59
		c-2.855-3.465-7.978-3.958-11.443-1.107c-3.465,2.855-3.96,7.977-1.107,11.443l5.429,6.59c1.607,1.952,3.934,2.96,6.279,2.96
		C197.067,457.798,198.897,457.19,200.412,455.943z"/>
	<path style="fill:#202121;" d="M200.005,345.473l-73.439,22.104c-4.3,1.293-6.736,5.828-5.442,10.126
		c1.059,3.518,4.287,5.789,7.781,5.789c0.776,0,1.564-0.113,2.345-0.347l73.439-22.104c4.3-1.293,6.736-5.828,5.442-10.126
		C208.837,346.616,204.303,344.18,200.005,345.473z"/>
	<path style="fill:#202121;" d="M383.367,383.491c-0.776,0-1.564-0.113-2.345-0.347l-73.439-22.104
		c-4.3-1.293-6.736-5.828-5.442-10.126c1.292-4.3,5.827-6.735,10.126-5.442l73.439,22.104c4.3,1.293,6.736,5.828,5.442,10.126
		C390.09,381.222,386.862,383.491,383.367,383.491z"/>
</g>
<rect x="149.387" y="107.268" style="fill:#F0F3FA;" width="211.35" height="27.916"/>
<g style="opacity:0.19;">
	<polygon style="fill:#202121;" points="160.993,117.56 360.737,117.56 360.737,107.263 149.386,107.263 149.386,135.179 
		160.993,135.179 	"/>
</g>
<g>
</g>
<g>
</g>
<g>
</g>
<g>
</g>
<g>
</g>
<g>
</g>
<g>
</g>
<g>
</g>
<g>
</g>
<g>
</g>
<g>
</g>
<g>
</g>
<g>
</g>
<g>
</g>
<g>
</g>
</svg>
