<?xml version="1.0" encoding="iso-8859-1"?>
<!-- Generator: Adobe Illustrator 19.0.0, SVG Export Plug-In . SVG Version: 6.00 Build 0)  -->
<svg version="1.1" id="Layer_1" xmlns="http://www.w3.org/2000/svg" xmlns:xlink="http://www.w3.org/1999/xlink" x="0px" y="0px"
	 viewBox="0 0 511.999 511.999" style="enable-background:new 0 0 511.999 511.999;" xml:space="preserve">
<path style="fill:#FFDB6F;" d="M488.121,297.066v72.538c0,3.95-3.21,7.161-7.161,7.161H31.03c-3.95,0-7.161-3.21-7.161-7.161
	v-61.857h431.516c6.158,0,11.242-4.678,11.875-10.681H488.121L488.121,297.066z M268.347,345.318
	c0.251-0.979,0.382-2.005,0.382-3.067c0-7.029-5.705-12.722-12.734-12.722c-6.469,0-11.803,4.81-12.627,11.051
	c-0.227,0.943-0.346,1.921-0.346,2.924c0,7.029,5.705,12.734,12.734,12.734C262.165,356.238,267.464,351.488,268.347,345.318z"/>
<path style="fill:#31CCC9;" d="M488.121,295.813v1.253H467.26c0.036-0.406,0.06-0.823,0.06-1.253c0-6.6-5.347-11.935-11.935-11.935
	H23.869V58.961c0-3.95,3.21-7.161,7.161-7.161h449.931c3.95,0,7.161,3.21,7.161,7.161V295.813z M413.471,180.442v-25.218
	c0-23.034-18.737-41.771-41.771-41.771H140.29c-23.034,0-41.771,18.737-41.771,41.771v25.218c0,23.034,18.737,41.771,41.771,41.771
	H371.7C394.734,222.213,413.471,203.476,413.471,180.442z"/>
<g>
	<path style="fill:#E4F5F4;" d="M389.602,155.225v25.218c0,9.87-8.032,17.902-17.902,17.902H140.29
		c-9.87,0-17.902-8.032-17.902-17.902v-25.218c0-9.87,8.032-17.902,17.902-17.902H371.7
		C381.57,137.323,389.602,145.355,389.602,155.225z M324.69,167.839c0-6.6-5.335-11.935-11.935-11.935
		c-6.588,0-11.935,5.335-11.935,11.935c0,6.588,5.347,11.923,11.935,11.923C319.356,179.762,324.69,174.427,324.69,167.839z
		 M288.374,167.839c0-6.6-5.335-11.935-11.935-11.935c-6.588,0-11.935,5.335-11.935,11.935c0,6.588,5.347,11.923,11.935,11.923
		C283.039,179.762,288.374,174.427,288.374,167.839z M252.069,167.839c0-6.6-5.347-11.935-11.935-11.935
		c-6.588,0-11.935,5.335-11.935,11.935c0,6.588,5.347,11.923,11.935,11.923C246.722,179.762,252.069,174.427,252.069,167.839z
		 M215.752,167.839c0-6.6-5.335-11.935-11.923-11.935c-6.6,0-11.935,5.335-11.935,11.935c0,6.588,5.335,11.923,11.935,11.923
		C210.417,179.762,215.752,174.427,215.752,167.839z M179.435,167.839c0-6.6-5.335-11.935-11.923-11.935
		c-6.6,0-11.935,5.335-11.935,11.935c0,6.588,5.335,11.923,11.935,11.923C174.101,179.762,179.435,174.427,179.435,167.839z"/>
	<path style="fill:#E4F5F4;" d="M315.763,460.199H196.227c7.96-10.311,12.71-23.225,12.71-37.224v-22.341h94.116v22.341
		C303.053,436.975,307.803,449.888,315.763,460.199z"/>
</g>
<g>
	<path style="fill:#201F2E;" d="M480.961,27.931H31.03C13.916,27.931,0,41.847,0,58.961v236.852v73.791
		c0,17.114,13.916,31.03,31.03,31.03h154.039v22.341c0,20.527-16.708,37.224-37.236,37.224h-33.978
		c-6.588,0-11.935,5.347-11.935,11.935c0,6.6,5.347,11.935,11.935,11.935h284.28c6.588,0,11.935-5.335,11.935-11.935
		c0-6.588-5.347-11.935-11.935-11.935h-33.978c-20.527,0-37.236-16.696-37.236-37.224v-22.341h154.039
		c17.114,0,31.03-13.916,31.03-31.03v-73.791c0.012-0.251,0.012-0.465,0-0.668V58.961C511.99,41.847,498.075,27.931,480.961,27.931z
		 M488.121,369.604c0,3.95-3.21,7.161-7.161,7.161H31.03c-3.95,0-7.161-3.21-7.161-7.161v-61.857h431.516
		c6.158,0,11.242-4.678,11.875-10.681c0.036-0.406,0.06-0.823,0.06-1.253c0-6.6-5.347-11.935-11.935-11.935H23.869V58.961
		c0-3.95,3.21-7.161,7.161-7.161h449.931c3.95,0,7.161,3.21,7.161,7.161v236.852v1.253V369.604z M196.227,460.199
		c7.96-10.311,12.71-23.225,12.71-37.224v-22.341h94.116v22.341c0,13.999,4.75,26.912,12.71,37.224H196.227z"/>
	<path style="fill:#201F2E;" d="M371.7,113.454H140.29c-23.034,0-41.771,18.737-41.771,41.771v25.218
		c0,23.034,18.737,41.771,41.771,41.771H371.7c23.034,0,41.771-18.737,41.771-41.771v-25.218
		C413.471,132.191,394.734,113.454,371.7,113.454z M389.602,180.442c0,9.87-8.032,17.902-17.902,17.902H140.29
		c-9.87,0-17.902-8.032-17.902-17.902v-25.218c0-9.87,8.032-17.902,17.902-17.902H371.7c9.87,0,17.902,8.032,17.902,17.902V180.442z
		"/>
	<path style="fill:#201F2E;" d="M312.756,155.905c-6.588,0-11.935,5.335-11.935,11.935c0,6.588,5.347,11.923,11.935,11.923
		c6.6,0,11.935-5.335,11.935-11.923C324.69,161.24,319.356,155.905,312.756,155.905z"/>
	<path style="fill:#201F2E;" d="M276.439,155.905c-6.588,0-11.935,5.335-11.935,11.935c0,6.588,5.347,11.923,11.935,11.923
		c6.6,0,11.935-5.335,11.935-11.923C288.374,161.24,283.039,155.905,276.439,155.905z"/>
	<path style="fill:#201F2E;" d="M255.995,329.528c-6.469,0-11.803,4.81-12.627,11.051c-0.072,0.549-0.107,1.11-0.107,1.671
		c0,7.029,5.705,12.734,12.734,12.734c5.979,0,10.992-4.117,12.352-9.667c0.251-0.979,0.382-2.005,0.382-3.067
		C268.729,335.221,263.025,329.528,255.995,329.528z"/>
	<path style="fill:#201F2E;" d="M240.134,155.905c-6.588,0-11.935,5.335-11.935,11.935c0,6.588,5.347,11.923,11.935,11.923
		c6.588,0,11.935-5.335,11.935-11.923C252.069,161.24,246.722,155.905,240.134,155.905z"/>
	<path style="fill:#201F2E;" d="M203.829,155.905c-6.6,0-11.935,5.335-11.935,11.935c0,6.588,5.335,11.923,11.935,11.923
		c6.588,0,11.923-5.335,11.923-11.923C215.752,161.24,210.417,155.905,203.829,155.905z"/>
	<path style="fill:#201F2E;" d="M167.513,155.905c-6.6,0-11.935,5.335-11.935,11.935c0,6.588,5.335,11.923,11.935,11.923
		c6.588,0,11.923-5.335,11.923-11.923C179.435,161.24,174.101,155.905,167.513,155.905z"/>
</g>
<g>
</g>
<g>
</g>
<g>
</g>
<g>
</g>
<g>
</g>
<g>
</g>
<g>
</g>
<g>
</g>
<g>
</g>
<g>
</g>
<g>
</g>
<g>
</g>
<g>
</g>
<g>
</g>
<g>
</g>
</svg>
