<?xml version="1.0" encoding="iso-8859-1"?>
<!-- Generator: Adobe Illustrator 19.0.0, SVG Export Plug-In . SVG Version: 6.00 Build 0)  -->
<svg xmlns="http://www.w3.org/2000/svg" xmlns:xlink="http://www.w3.org/1999/xlink" version="1.1" id="Layer_1" x="0px" y="0px" viewBox="0 0 512 512" style="enable-background:new 0 0 512 512;" xml:space="preserve" width="512px" height="512px">
<g>
	<g>
		<path d="M273.401,162.15h-85.978c-4.328,0-7.837,3.508-7.837,7.837c0,4.328,3.509,7.837,7.837,7.837h85.978    c4.328,0,7.837-3.508,7.837-7.837C281.237,165.658,277.729,162.15,273.401,162.15z" fill="#FFFFFF"/>
	</g>
</g>
<g>
	<g>
		<path d="M324.578,201.267h-69.623c-4.328,0-7.837,3.508-7.837,7.837s3.509,7.837,7.837,7.837h69.623    c4.328,0,7.837-3.508,7.837-7.837C332.414,204.776,328.906,201.267,324.578,201.267z" fill="#FFFFFF"/>
	</g>
</g>
<g>
	<g>
		<path d="M224.653,201.267h-37.231c-4.328,0-7.837,3.508-7.837,7.837c0,4.329,3.509,7.837,7.837,7.837h37.231    c4.328,0,7.837-3.508,7.837-7.837S228.981,201.267,224.653,201.267z" fill="#FFFFFF"/>
	</g>
</g>
<g>
	<g>
		<path d="M324.578,240.385H187.422c-4.328,0-7.837,3.508-7.837,7.837c0,4.329,3.509,7.837,7.837,7.837h137.156    c4.328,0,7.837-3.508,7.837-7.837C332.414,243.893,328.906,240.385,324.578,240.385z" fill="#FFFFFF"/>
	</g>
</g>
<g>
	<g>
		<path d="M324.578,279.504H187.422c-4.328,0-7.837,3.508-7.837,7.837c0,4.329,3.509,7.837,7.837,7.837h137.156    c4.328,0,7.837-3.508,7.837-7.837C332.414,283.013,328.906,279.504,324.578,279.504z" fill="#FFFFFF"/>
	</g>
</g>
<g>
	<g>
		<path d="M324.578,318.622H187.422c-4.328,0-7.837,3.508-7.837,7.837c0,4.329,3.509,7.837,7.837,7.837h137.156    c4.328,0,7.837-3.508,7.837-7.837C332.414,322.13,328.906,318.622,324.578,318.622z" fill="#FFFFFF"/>
	</g>
</g>
<g>
	<g>
		<path d="M464.203,200.579l-64.572-64.572v-25.891c0-10.133-8.244-18.379-18.379-18.379h-25.891L268.996,5.373    C265.534,1.908,260.917,0,255.999,0c-4.917,0-9.534,1.908-12.994,5.371l-86.367,86.367h-25.892    c-10.133,0-18.378,8.245-18.378,18.379v25.889l-64.572,64.573c-5.559,5.56-9.752,15.679-9.752,23.536v269.506    c0,10.133,8.244,18.379,18.378,18.379h263.316c4.328,0,7.837-3.508,7.837-7.837c0-4.329-3.509-7.837-7.837-7.837H68.354    l70.934-70.935c3.061-3.062,3.061-8.023,0-11.083c-3.06-3.06-8.023-3.06-11.082,0l-74.488,74.488v-256.3l60.944,60.943    c0.001,0.001,0.002,0.002,0.003,0.003l67.204,67.203l-33.81,33.81c-3.06,3.062-3.06,8.023,0,11.083    c1.53,1.53,3.536,2.295,5.541,2.295c2.005,0,4.011-0.766,5.541-2.295l33.811-33.81l50.051,50.05    c3.463,3.463,8.078,5.371,12.996,5.371c4.918,0,9.534-1.907,12.995-5.37l50.053-50.053l124.599,124.601h-92.56    c-4.328,0-7.837,3.508-7.837,7.837c0,4.329,3.509,7.837,7.837,7.837h104.491c10.134,0,18.379-8.245,18.379-18.379V224.115    C473.955,216.257,469.763,206.139,464.203,200.579z M112.368,268.979l-47.569-47.568h47.569V268.979z M112.368,205.736H64.805    l47.564-47.564V205.736z M399.632,158.174l47.564,47.564h-47.564V158.174z M399.632,221.41h47.565l-47.565,47.565V221.41z     M254.089,16.452c0.677-0.677,1.488-0.778,1.911-0.778c0.423,0,1.233,0.101,1.912,0.781l75.284,75.284H178.803L254.089,16.452z     M458.282,488.796L330.129,360.643l28.587-28.587c3.06-3.062,3.06-8.023,0-11.083c-3.06-3.059-8.023-3.059-11.082,0    l-89.724,89.724c-0.677,0.677-1.488,0.778-1.911,0.778c-0.423,0-1.234-0.101-1.912-0.78l-55.591-55.591    c-0.001-0.001-0.002-0.001-0.002-0.001c-0.001-0.002-0.002-0.002-0.003-0.003l-70.449-70.449V110.117    c0-1.466,1.238-2.705,2.704-2.705h250.507c1.466,0,2.705,1.239,2.705,2.705v174.532l-13.874,13.874    c-3.06,3.062-3.06,8.023,0,11.083c1.53,1.53,3.536,2.295,5.541,2.295c2.005,0,4.011-0.765,5.541-2.295l77.116-77.116V488.796z" fill="#FFFFFF"/>
	</g>
</g>
<g>
</g>
<g>
</g>
<g>
</g>
<g>
</g>
<g>
</g>
<g>
</g>
<g>
</g>
<g>
</g>
<g>
</g>
<g>
</g>
<g>
</g>
<g>
</g>
<g>
</g>
<g>
</g>
<g>
</g>
</svg>
