<?xml version="1.0" encoding="iso-8859-1"?>
<!-- Generator: Adobe Illustrator 19.0.0, SVG Export Plug-In . SVG Version: 6.00 Build 0)  -->
<svg xmlns="http://www.w3.org/2000/svg" xmlns:xlink="http://www.w3.org/1999/xlink" version="1.1" id="Layer_1" x="0px" y="0px" viewBox="0 0 512 512" style="enable-background:new 0 0 512 512;" xml:space="preserve" width="512px" height="512px">
<g>
	<g>
		<path d="M448.557,0H95.73c-7.202,0-13.061,5.859-13.061,13.061V34.34H63.443c-7.202,0-13.061,5.859-13.061,13.061v20.267    c0,7.201,5.859,13.061,13.061,13.061h19.226v19.766H63.443c-7.202,0-13.061,5.859-13.061,13.061v20.266    c0,7.202,5.859,13.061,13.061,13.061h19.226v19.767H63.443c-7.202,0-13.061,5.859-13.061,13.061v20.266    c0,7.203,5.859,13.061,13.061,13.061h19.226v19.766H63.443c-7.202,0-13.061,5.859-13.061,13.061v20.267    c0,7.203,5.859,13.061,13.061,13.061h19.226v19.766H63.443c-7.202,0-13.061,5.859-13.061,13.061v20.266    c0,7.203,5.859,13.061,13.061,13.061h19.226v19.767H63.443c-7.202,0-13.061,5.859-13.061,13.061v20.267    c0,7.203,5.859,13.061,13.061,13.061h19.226v19.766H63.443c-7.202,0-13.061,5.859-13.061,13.061V464.6    c0,7.203,5.859,13.061,13.061,13.061h19.226v21.277c0,7.202,5.859,13.061,13.061,13.061h61.004c4.329,0,7.837-3.508,7.837-7.837    c0-4.329-3.508-7.837-7.837-7.837H98.343V477.66h16.392c4.272,0,8.059-2.07,10.443-5.25h185.156c4.329,0,7.837-3.508,7.837-7.837    c0-4.328-3.508-7.837-7.837-7.837H127.796v-12.405c0-7.203-5.859-13.061-13.061-13.061H98.343v-19.766h16.392    c7.202,0,13.061-5.859,13.061-13.061v-20.267c0-7.202-5.859-13.061-13.061-13.061H98.343v-19.766h16.392    c7.202,0,13.061-5.859,13.061-13.061v-15.487h249.782v139.937h-29.627c-4.329,0-7.837,3.509-7.837,7.837    c0,4.329,3.508,7.837,7.837,7.837h29.627v23.916H193.306c-4.329,0-7.837,3.508-7.837,7.837c0,4.329,3.508,7.837,7.837,7.837    h255.251c7.203,0,13.061-5.859,13.061-13.061V13.061C461.618,5.859,455.759,0,448.557,0z M66.055,65.055V50.013h46.068v15.042    H66.055z M66.055,131.211v-15.042h46.068v15.042H66.055z M66.055,197.366v-15.041h46.068v15.041H66.055z M66.055,263.521v-15.042    h46.068v15.042H66.055z M112.123,446.945v15.042H66.055v-15.042H112.123z M112.123,380.789v15.042H66.055v-15.042H112.123z     M112.123,329.676H66.055v-15.041h46.068V329.676z M377.577,301.127H121.921c-2.064-1.366-4.532-2.165-7.186-2.165H98.343v-19.766    h16.392c7.202,0,13.061-5.859,13.061-13.061v-20.267c0-7.202-5.859-13.061-13.061-13.061H98.343V213.04h16.392    c7.202,0,13.061-5.859,13.061-13.061v-20.267c0-7.203-5.859-13.061-13.061-13.061H98.343v-19.767h16.392    c7.202,0,13.061-5.859,13.061-13.061v-20.266c0-7.203-5.859-13.061-13.061-13.061H98.343V80.729h16.392    c7.202,0,13.061-5.86,13.061-13.061V47.401c0-7.202-5.859-13.061-13.061-13.061H98.343V15.673h279.234V301.127z M445.945,496.327    h-17.014V472.41h17.014V496.327z M445.945,456.736h-17.014V316.801h17.014V456.736z M445.945,301.127h-17.014V92.995    c0-4.329-3.508-7.837-7.837-7.837s-7.837,3.508-7.837,7.837v403.332H393.25V15.673h20.007v42.84c0,4.329,3.508,7.837,7.837,7.837    s7.837-3.508,7.837-7.837v-42.84h17.014V301.127z" fill="#FFFFFF"/>
	</g>
</g>
<g>
	<g>
		<path d="M272.143,96.202c-40.757,0-73.916,33.158-73.916,73.915c0,40.757,33.159,73.916,73.916,73.916    c12.96,0,25.713-3.405,36.883-9.846c3.749-2.162,5.035-6.955,2.873-10.704c-2.163-3.751-6.955-5.035-10.704-2.873    c-8.791,5.071-18.836,7.75-29.052,7.75c-32.115,0-58.243-26.128-58.243-58.243c0-32.114,26.128-58.242,58.243-58.242    s58.243,26.128,58.243,58.242c0,9.716-2.438,19.331-7.049,27.802c-2.069,3.801-0.666,8.56,3.136,10.63    c3.805,2.071,8.56,0.667,10.63-3.136c5.86-10.765,8.957-22.969,8.957-35.296C346.059,129.359,312.9,96.202,272.143,96.202z" fill="#FFFFFF"/>
	</g>
</g>
<g>
	<g>
		<path d="M258.551,348.186h-86.494c-4.329,0-7.837,3.508-7.837,7.837c0,4.329,3.508,7.837,7.837,7.837h86.494    c4.329,0,7.837-3.508,7.837-7.837C266.387,351.694,262.88,348.186,258.551,348.186z" fill="#FFFFFF"/>
	</g>
</g>
<g>
	<g>
		<path d="M258.551,377.064h-86.494c-4.329,0-7.837,3.508-7.837,7.837s3.508,7.837,7.837,7.837h86.494    c4.329,0,7.837-3.508,7.837-7.837S262.88,377.064,258.551,377.064z" fill="#FFFFFF"/>
	</g>
</g>
<g>
	<g>
		<path d="M216.294,405.943h-44.237c-4.329,0-7.837,3.508-7.837,7.837c0,4.329,3.508,7.837,7.837,7.837h44.237    c4.329,0,7.837-3.508,7.837-7.837C224.131,409.451,220.623,405.943,216.294,405.943z" fill="#FFFFFF"/>
	</g>
</g>
<g>
</g>
<g>
</g>
<g>
</g>
<g>
</g>
<g>
</g>
<g>
</g>
<g>
</g>
<g>
</g>
<g>
</g>
<g>
</g>
<g>
</g>
<g>
</g>
<g>
</g>
<g>
</g>
<g>
</g>
</svg>
